<svg xmlns="http://www.w3.org/2000/svg" xmlns:xlink="http://www.w3.org/1999/xlink" fill="none"
    version="1.1" viewBox="0 0 20 20">
    <defs>
        <clipPath id="master_svg0_3296_21171">
            <rect x="0" y="0" width="20" height="20" rx="0"></rect>
        </clipPath>
        <linearGradient x1="0" y1="0.5" x2="0.9363744258880615" y2="0.5" id="master_svg1_3158_17836">
            <stop offset="0%" stop-color="#14A2FF" stop-opacity="1"></stop>
            <stop offset="17.85714328289032%" stop-color="#8579FF" stop-opacity="1"></stop>
            <stop offset="31.42857253551483%" stop-color="#C46EFC" stop-opacity="1"></stop>
            <stop offset="42.85714328289032%" stop-color="#F1609C" stop-opacity="1"></stop>
            <stop offset="56.42856955528259%" stop-color="#F37968" stop-opacity="1"></stop>
            <stop offset="74.28571581840515%" stop-color="#FE7E2C" stop-opacity="1"></stop>
            <stop offset="87.85714507102966%" stop-color="#FEA80C" stop-opacity="1"></stop>
            <stop offset="100%" stop-color="#FEA80C" stop-opacity="1"></stop>
        </linearGradient>
        <linearGradient x1="0" y1="0.5" x2="0.9363744258880615" y2="0.5" id="master_svg2_3158_17836">
            <stop offset="0%" stop-color="#14A2FF" stop-opacity="1"></stop>
            <stop offset="17.85714328289032%" stop-color="#8579FF" stop-opacity="1"></stop>
            <stop offset="31.42857253551483%" stop-color="#C46EFC" stop-opacity="1"></stop>
            <stop offset="42.85714328289032%" stop-color="#F1609C" stop-opacity="1"></stop>
            <stop offset="56.42856955528259%" stop-color="#F37968" stop-opacity="1"></stop>
            <stop offset="74.28571581840515%" stop-color="#FE7E2C" stop-opacity="1"></stop>
            <stop offset="87.85714507102966%" stop-color="#FEA80C" stop-opacity="1"></stop>
            <stop offset="100%" stop-color="#FEA80C" stop-opacity="1"></stop>
        </linearGradient>
    </defs>
    <g>
        <g>
            <g clip-path="url(#master_svg0_3296_21171)">
                <g>
                    <path
                        d="M16.500799999999998,6.20144C15.5266,4.19665,13.3013,3,10.54941,3C5.53195,3,4.62518,7.68232,4.48062,8.79319C4.15471,9.05809,3.495876,9.666080000000001,3.105133,10.51122C2.950938,10.84423,2.9667079,11.18481,3.15069,11.47073C3.50639,12.02575,4.4333100000000005,12.2343,5.06498,12.31334L5.06498,15.4921C5.06498,15.7729,5.30153,16,5.59415,16L8.779679999999999,16C9.07193,16,9.30885,15.7726,9.30885,15.4921C9.30885,15.2116,9.07193,14.9842,8.779679999999999,14.9842L6.12332,14.9842L6.12332,11.84999C6.12318,11.57905,5.90151,11.35592,5.61956,11.34291C4.93094,11.31011,4.15383,11.10997,4.07148,10.92328C4.47712,10.04871,5.28751,9.47267,5.2954,9.46678C5.42301,9.376940000000001,5.50258,9.23744,5.51267,9.085840000000001C5.52494,8.878969999999999,5.88852,4.01501,10.54941,4.01501C12.87986,4.01501,14.746,4.99217,15.5432,6.63031C16.424599999999998,8.44252,15.8253,10.74836,13.8996,12.9575C13.8204,13.0489,13.777,13.1641,13.777,13.2829L13.777,15.4139C13.7648,15.7023,14.005,15.9425,14.3057,15.9425C14.6064,15.9425,14.8467,15.7023,14.8344,15.4139L14.8344,13.4663C16.9354,10.983830000000001,17.5434,8.34414,16.5017,6.20059"
                        fill="url(#master_svg1_3158_17836)" fill-opacity="1"></path>
                </g>
                <g>
                    <path
                        d="M11.63695,7C11.43645,6.999999318499,11.2739,7.201295,11.2739,7.449606L11.2739,11.42534C11.2739,11.67365,11.43645,11.87495,11.63695,11.87495C11.83746,11.87495,12,11.67365,12,11.42534L12,7.449606C12,7.201295,11.83746,6.999999772833,11.63695,7ZM9.18037,10.06164L9.47189,9.058209999999999L9.748380000000001,10.06164L9.18037,10.06164ZM9.82351,7.554563C9.7737,7.373696,9.63701,7.251587,9.48271,7.250112L9.4803,7.250112C9.32718,7.250271,9.19061,7.369383,9.13889,7.547864L8.0190926,11.40673C7.9560418,11.638490000000001,8.0541397,11.89016,8.239891,11.973189999999999C8.425642,12.05621,8.630912,11.94014,8.701912,11.711929999999999L8.9195,10.96011L9.99722,10.96011L10.20219,11.70448C10.27005,11.93402,10.47355,12.054369999999999,10.660350000000001,11.97543C10.84715,11.8965,10.9488,11.6472,10.88922,11.41418L9.82351,7.553819L9.82351,7.554563Z"
                        fill="url(#master_svg2_3158_17836)" fill-opacity="1"></path>
                </g>
            </g>
        </g>
    </g>
</svg>