<svg viewBox="0 0 20 20" fill="none" xmlns="http://www.w3.org/2000/svg">
    <path
        d="M4.375 14.1668H7.5C8.88071 14.1668 10 15.2861 10 16.6668V8.9585C10 6.49288 10 5.26008 9.31903 4.43032C9.19437 4.27841 9.05508 4.13913 8.90318 4.01446C8.07342 3.3335 6.84061 3.3335 4.375 3.3335C3.55313 3.3335 3.14219 3.3335 2.86561 3.56049C2.81497 3.60204 2.76854 3.64847 2.72699 3.6991C2.5 3.97569 2.5 4.38662 2.5 5.20849V12.2918C2.5 13.1137 2.5 13.5246 2.72699 13.8012C2.76854 13.8519 2.81497 13.8983 2.86561 13.9398C3.14219 14.1668 3.55313 14.1668 4.375 14.1668Z"
        stroke="currentColor" stroke-width="2"></path>
    <path
        d="M15.625 14.1668H12.5C11.1193 14.1668 10 15.2861 10 16.6668V8.9585C10 6.49288 10 5.26008 10.681 4.43032C10.8056 4.27841 10.9449 4.13913 11.0968 4.01446C11.9266 3.3335 13.1594 3.3335 15.625 3.3335C16.4469 3.3335 16.8578 3.3335 17.1344 3.56049C17.185 3.60204 17.2315 3.64847 17.273 3.6991C17.5 3.97569 17.5 4.38662 17.5 5.20849V12.2918C17.5 13.1137 17.5 13.5246 17.273 13.8012C17.2315 13.8519 17.185 13.8983 17.1344 13.9398C16.8578 14.1668 16.4469 14.1668 15.625 14.1668Z"
        stroke="currentColor" stroke-width="2"></path>
</svg>