<svg xmlns="http://www.w3.org/2000/svg" xmlns:xlink="http://www.w3.org/1999/xlink" fill="none"
    version="1.1" viewBox="0 0 30 30">
    <defs>
        <clipPath id="master_svg0_698_0552">
            <rect x="0" y="0" width="30" height="30" rx="0"></rect>
        </clipPath>
    </defs>
    <g clip-path="url(#master_svg0_698_0552)">
        <g>
            <path
                d="M7.58886625,15.6514171875L7.58886625,7.0253871875Q7.58886625,5.3496071875,8.44823625,4.4848571875Q9.307616249999999,3.6201171875,10.95116625,3.6201171875L15.88175625,3.6201171875Q16.88085625,3.6201171875,17.52535625,3.8403271875Q18.169856250000002,4.0605471875,18.83585625,4.7372971875L24.05655625,10.0331971875Q24.51855625,10.5058571875,24.75485625,10.924797187500001Q24.99115625,11.3437971875,25.07705625,11.8593971875Q25.16305625,12.3749971875,25.16305625,13.1054971875L25.16305625,22.3223171875Q25.16305625,23.9873171875,24.30905625,24.8467171875Q23.45505625,25.7061171875,21.80075625,25.7061171875L14.42085625,25.7061171875Q14.71095625,25.2227171875,14.92045625,24.6855171875Q15.12985625,24.1484171875,15.21575625,23.5576171875L21.58585625,23.5576171875Q22.30565625,23.5576171875,22.66015625,23.1978171875Q23.01455625,22.8379171875,23.01455625,22.1504171875L23.01455625,13.4706971875L17.67575625,13.4706971875Q16.53705625,13.4706971875,15.97305625,12.9066971875Q15.40915625,12.3427971875,15.40915625,11.1933971875L15.40915625,5.7792971875L11.16601625,5.7792971875Q10.44628625,5.7792971875,10.09716625,6.1445271875Q9.74804625,6.5097671875,9.74804625,7.1865171875L9.74804625,15.6514171875Q9.45800625,15.6084171875,9.18944625,15.5815171875Q8.92089625,15.5547171875,8.652336250000001,15.5547171875Q8.38378625,15.5547171875,8.11522625,15.5815171875Q7.84667625,15.6084171875,7.58886625,15.6514171875ZM17.256756250000002,10.9999971875Q17.256756250000002,11.311497187499999,17.40185625,11.4618971875Q17.546856249999998,11.612297187500001,17.86905625,11.612297187500001L22.75675625,11.612297187500001L17.256756250000002,6.0371071875L17.256756250000002,10.9999971875ZM8.673826250000001,27.5430171875Q7.58886625,27.5430171875,6.63817625,27.1294171875Q5.687496250000001,26.7158171875,4.96239625,25.9907171875Q4.23730125,25.2656171875,3.82372625,24.3096171875Q3.41015625,23.3535171875,3.41015625,22.2793171875Q3.41015625,20.8291171875,4.12450825,19.6367171875Q4.83886625,18.444317187499998,6.031246250000001,17.7300171875Q7.223626250000001,17.0156171875,8.673826250000001,17.0156171875Q10.11327625,17.0156171875,11.31103625,17.7300171875Q12.50878625,18.444317187499998,13.21776625,19.6367171875Q13.92675625,20.8291171875,13.92675625,22.2793171875Q13.92675625,23.3535171875,13.51315625,24.3042171875Q13.09960625,25.2549171875,12.37450625,25.9854171875Q11.64940625,26.7158171875,10.69335625,27.1294171875Q9.73729625,27.5430171875,8.673826250000001,27.5430171875ZM8.673826250000001,25.6309171875Q8.996086250000001,25.6309171875,9.194816249999999,25.4321171875Q9.39354625,25.2334171875,9.39354625,24.9111171875L9.39354625,22.9990171875L11.29491625,22.9990171875Q11.61718625,22.9990171875,11.81591625,22.8003171875Q12.01464625,22.6016171875,12.01464625,22.2793171875Q12.01464625,21.9463171875,11.81591625,21.7529171875Q11.61718625,21.5596171875,11.29491625,21.5596171875L9.39354625,21.5596171875L9.39354625,19.6582171875Q9.39354625,19.3359171875,9.194816249999999,19.1372171875Q8.996086250000001,18.9385171875,8.673826250000001,18.9385171875Q8.34081625,18.9385171875,8.14208625,19.1372171875Q7.94335625,19.3359171875,7.94335625,19.6582171875L7.94335625,21.5596171875L6.04198625,21.5596171875Q5.71972625,21.5596171875,5.52099625,21.7529171875Q5.32226625,21.9463171875,5.32226625,22.2793171875Q5.32226625,22.6016171875,5.52099625,22.8003171875Q5.71972625,22.9990171875,6.04198625,22.9990171875L7.94335625,22.9990171875L7.94335625,24.9111171875Q7.94335625,25.2334171875,8.14208625,25.4321171875Q8.34081625,25.6309171875,8.673826250000001,25.6309171875Z"
                fill="currentColor" fill-opacity="1"></path>
        </g>
    </g>
</svg>