<svg xmlns="http://www.w3.org/2000/svg" xmlns:xlink="http://www.w3.org/1999/xlink" fill="none"
    version="1.1" viewBox="0 0 24 24">
    <defs>
        <clipPath id="master_svg0_698_4247">
            <rect x="0" y="0" width="24" height="24" rx="0"></rect>
        </clipPath>
    </defs>
    <g clip-path="url(#master_svg0_698_4247)">
        <g>
            <path
                d="M14.2549,14.5636L17.8247,14.5636Q18.8366,14.5636,19.3068,14.1527Q19.7769,13.74172,19.7769,13.05561Q19.7769,12.2338,19.1873,11.75873Q18.5977,11.28371,17.5458,11.163070000000001Q17.3784,11.140450000000001,17.3945,10.97456Q17.426299999999998,10.69558,17.450200000000002,10.341190000000001Q17.4741,9.98681,17.458199999999998,9.61735Q17.4104,8.62961,16.8964,7.81904Q16.3825,7.00849,15.5298,6.52593Q14.6773,6.04336,13.5936,6.04336Q12.757,6.04336,12.0916,6.30349Q11.42629,6.56362,10.93224,7.0311Q10.43824,7.49859,10.08765,8.13196Q10.0239,8.252600000000001,9.85657,8.207360000000001Q8.97211,7.98116,8.23904,8.17719Q7.50597,8.37324,7.09562,8.97645Q6.68526,9.57965,6.76494,10.5674Q6.78087,10.740829999999999,6.5976,10.740829999999999Q5.54582,10.740829999999999,4.88446,11.27994Q4.22311,11.81905,4.22311,12.76906Q4.22311,13.25916,4.4741,13.66634Q4.725099999999999,14.0735,5.195209999999999,14.3186Q5.6653400000000005,14.5636,6.32669,14.5636L9.505980000000001,14.5636L9.505980000000001,16.607L6.31076,16.607Q5.011950000000001,16.607,4.04383,16.1018Q3.0757000000000003,15.5966,2.537855,14.7483Q2,13.9001,2,12.85959Q2,11.96231,2.34662,11.21208Q2.693229,10.461839999999999,3.33068,9.949110000000001Q3.96813,9.43639,4.8605599999999995,9.26296Q4.91634,8.49388,5.29084,7.87559Q5.6653400000000005,7.25731,6.26295,6.8426Q6.86056,6.4279,7.57769,6.26579Q8.29482,6.103680000000001,9.04382,6.24694Q9.56972,5.54571,10.27092,5.0443Q10.97212,4.542885,11.82069,4.271442Q12.6693,4,13.6335,4Q14.8844,4,15.9562,4.422244Q17.027900000000002,4.844488,17.8286,5.61358Q18.6295,6.38266,19.0757,7.426959999999999Q19.5219,8.471260000000001,19.5219,9.722909999999999Q20.6852,10.14516,21.3427,11.08013Q22,12.0151,22,13.26678Q22,14.2695,21.494,15.0236Q20.988,15.7776,20.0757,16.1923Q19.1633,16.607,17.9362,16.607L14.2549,16.607L14.2549,14.5636ZM11.88842,20Q11.48208,20,11.20721,19.7324Q10.93224,19.4646,10.93224,19.1027L10.93224,12.79927L11.07574,11.64563L10.65339,12.21865L9.81673,13.03303Q9.55378,13.28936,9.195219999999999,13.28936Q8.88446,13.28936,8.63346,13.08206Q8.38246,12.87465,8.38246,12.54293Q8.38246,12.2338,8.63744,12.00756L11.12348,9.7757Q11.30676,9.60227,11.49799,9.53064Q11.68923,9.45901,11.88842,9.45901Q12.0797,9.45901,12.2709,9.53064Q12.4621,9.60227,12.6534,9.7757L15.1394,12.00756Q15.3944,12.2338,15.3944,12.54293Q15.3944,12.87465,15.1394,13.08206Q14.8844,13.28936,14.5737,13.28936Q14.2152,13.28936,13.9522,13.03303L13.1156,12.21865L12.7012,11.64563L12.8366,12.79927L12.8366,19.1027Q12.8366,19.4646,12.5618,19.7324Q12.2868,20,11.88842,20Z"
                fill="currentColor" fill-opacity="1"></path>
        </g>
    </g>
</svg>